<svg xmlns="http://www.w3.org/2000/svg" width="55.2" height="95" viewBox="0 0 55.2 95" className="housingIcons" >
  <g id="Condo" transform="translate(-22.4 -2.5)">
    <g id="Group_2" data-name="Group 2">
      <path id="Path_5" data-name="Path 5" d="M77.6,14.9V10.3H22.4v4.6h4.5v78H22.4v4.6H77.6V92.9H73.1v-78h4.5ZM59.2,22.6h6.2v8H59.2Zm0,14.1h6.2v8H59.2Zm0,14.1h6.2v8H59.2Zm0,14.2h6.2v8H59.2ZM46.9,22.6h6.2v8H46.9Zm0,14.1h6.2v8H46.9Zm0,14.1h6.2v8H46.9Zm0,14.2h6.2v8H46.9ZM34.6,22.6h6.2v8H34.6Zm0,14.1h6.2v8H34.6Zm0,14.1h6.2v8H34.6Zm0,14.2h6.2v8H34.6ZM46,92.9V80.7h8V92.9H46Z"/>
      <rect id="Rectangle_18" data-name="Rectangle 18" width="55.2" height="4.6" transform="translate(22.4 2.5)"/>
    </g>
  </g>
</svg>
