<svg xmlns="http://www.w3.org/2000/svg" width="71.25" height="71.25" viewBox="0 0 71.25 71.25" className="housingIcons">
  <g id="Duplex" transform="translate(-1.875 -1.875)">
    <path id="Path_6" data-name="Path 6" d="M1.875,1.875V5.113h71.25V1.875ZM5.119,8.353l.1,30.767h7.987V13.211H32.643V39.12H69.777l.1-30.767Zm37.239,4.858H61.79V32.643H42.358ZM16.449,16.449V39.12H29.4V16.449Zm29.149,0v4.777h4.856V16.449Zm8.1,0v4.777h4.858V16.449Zm-8.1,8.015V29.4h4.856v-4.94Zm8.1,0V29.4h4.858v-4.94ZM5.12,42.358l.1,30.767h7.987V47.216H32.644V73.125H69.778l.1-30.767Zm37.239,4.858H61.791V66.648H42.359ZM16.45,50.454V73.125H29.405V50.454Zm29.149,0v4.777h4.856V50.454Zm8.1,0v4.777h4.858V50.454ZM45.6,58.47v4.94h4.856V58.47Zm8.1,0v4.94h4.858V58.47Z"/>
  </g>
</svg>
