<svg xmlns="http://www.w3.org/2000/svg" width="62" height="62" viewBox="0 0 62 62">
  <g id="North_West" data-name="North West" transform="translate(-1 -1)">
    <g id="Group_7" data-name="Group 7">
      <path id="Path_13" data-name="Path 13" d="M54,1H10a9.01,9.01,0,0,0-9,9V54a9.01,9.01,0,0,0,9,9H54a9.01,9.01,0,0,0,9-9V10A9.01,9.01,0,0,0,54,1ZM50.521,37.793,37.792,50.521a1,1,0,0,1-1.414,0L20.822,34.965l-5.929,5.929a1,1,0,0,1-1.707-.707v-26a1,1,0,0,1,1-1h26a1,1,0,0,1,.707,1.707l-5.929,5.929L50.521,36.379a1,1,0,0,1,0,1.414Z"/>
    </g>
  </g>
</svg>
