<svg xmlns="http://www.w3.org/2000/svg" width="62" height="62" viewBox="0 0 62 62" fill="#009999" >
  <g id="North_East" data-name="North East" transform="translate(-1 -1)">
    <g id="Group_6" data-name="Group 6">
      <path id="Path_12" data-name="Path 12" d="M54,1H10a9.01,9.01,0,0,0-9,9V54a9.01,9.01,0,0,0,9,9H54a9.01,9.01,0,0,0,9-9V10A9.01,9.01,0,0,0,54,1ZM50.814,40.186a1,1,0,0,1-1.707.707l-5.929-5.929L27.621,50.521a1,1,0,0,1-1.414,0L13.479,37.793a1,1,0,0,1,0-1.414L29.035,20.822l-5.929-5.929a1,1,0,0,1,.707-1.707h26a1,1,0,0,1,1,1v26Z"/>
    </g>
  </g>
</svg>
