<svg xmlns="http://www.w3.org/2000/svg" width="62" height="62" viewBox="0 0 62 62">
  <g id="South_West" data-name="South West" transform="translate(-1 -1)">
    <g id="Group_5" data-name="Group 5">
      <path id="Path_11" data-name="Path 11" d="M54,1H10a9.01,9.01,0,0,0-9,9V54a9.01,9.01,0,0,0,9,9H54a9.01,9.01,0,0,0,9-9V10A9.01,9.01,0,0,0,54,1ZM50.521,27.621,34.964,43.177,40.785,49a1,1,0,0,1-.579,1.816H14.186a1,1,0,0,1-1-1v-26a1,1,0,0,1,1.707-.707l5.929,5.929L36.378,13.479a1,1,0,0,1,1.414,0L50.521,26.207a1,1,0,0,1,0,1.414Z"/>
    </g>
  </g>
</svg>
