<svg xmlns="http://www.w3.org/2000/svg" width="62" height="62" viewBox="0 0 62 62">
  <g id="South_East" data-name="South East" transform="translate(-1 -1)">
    <g id="Group_4" data-name="Group 4">
      <path id="Path_10" data-name="Path 10" d="M54,1H10a9.01,9.01,0,0,0-9,9V54a9.01,9.01,0,0,0,9,9H54a9.01,9.01,0,0,0,9-9V10A9.01,9.01,0,0,0,54,1ZM50.814,49.814a1,1,0,0,1-1,1h-26a1,1,0,0,1-.707-1.707l5.929-5.929L13.479,27.621a1,1,0,0,1,0-1.414L26.208,13.479a1,1,0,0,1,1.414,0L43.178,29.035l5.929-5.929a1,1,0,0,1,1.707.707v26Z"/>
    </g>
  </g>
</svg>
